<mxfile host="app.diagrams.net" modified="2023-08-09T03:21:53.510Z" agent="Mozilla/5.0 (Windows NT 10.0; Win64; x64) AppleWebKit/537.36 (KHTML, like Gecko) Chrome/115.0.0.0 Safari/537.36" version="21.6.7" etag="uO4QHlc7kTosIionDXZO" type="github">
  <diagram name="第 1 页" id="Qo3NlEUfDWglHUb4smuS">
    <mxGraphModel>
      <root>
        <mxCell id="0" />
        <mxCell id="1" parent="0" />
      </root>
    </mxGraphModel>
  </diagram>
</mxfile>
